# xmcd
#
# Track frame offsets:
#   150
#   13891
#   27428
#   38679
#   50268
#   61415
#   79864
#   99097
#   111140
#   128048
#   142213
#   153693
#   172254
#   188149
#   202975
#
# Disc length: 2950 seconds
#
# Revision: 0
# Processed by: cddbd v1.4PL0 Copyright (c) Steve Scherf et al.
# Submitted via: HCDA 1.3
#
DISCID=ce0b840f
DTITLE=Los Rieleros Del Norte - 15 Exitos
DYEAR=2000
DGENRE=Country
TTITLE0=la ultima copa
TTITLE1=Te vas acordar de mi
TTITLE2=Vas a Ver
TTITLE3=mi humilde corazon
TTITLE4=hablando claro
TTITLE5=ignacio parra
TTITLE6=seria una flor
TTITLE7=mi desgracia estaba escrita
TTITLE8=leonel garcia
TTITLE9=preso de amor
TTITLE10=esta triste realidad
TTITLE11=contrabando y muerte
TTITLE12=al ver que te vas
TTITLE13=serenata a mi madre
TTITLE14=se llevaron a mi novia
EXTD=
EXTT0=
EXTT1=
EXTT2=
EXTT3=
EXTT4=
EXTT5=
EXTT6=
EXTT7=
EXTT8=
EXTT9=
EXTT10=
EXTT11=
EXTT12=
EXTT13=
EXTT14=
PLAYORDER=
